<svg xmlns="http://www.w3.org/2000/svg" width="128" height="128.026" viewBox="0 0 128 128.026">
  <defs>
    <style>
      .cls-1 {
        fill: #3f5d5a;
      }
    </style>
  </defs>
  <path id="palm-tree" class="cls-1" d="M127.145,98.438c-.743-.444-16.5-9.385-53.829,1.016l-.629-4.376a289.808,289.808,0,0,1-2.942-41.117V46.386a8.836,8.836,0,0,0,7.984-1.58l6.806,6.368a1.747,1.747,0,0,0,1.956.3l4.138-2-1.179,5.1a1.75,1.75,0,0,0,.51,1.671l16.6,15.528a1.749,1.749,0,0,0,2.943-1.364l-.368-7.42A43.4,43.4,0,0,0,87.3,27.353a23.175,23.175,0,0,0-6.441-2.5l17.393-6.642a1.75,1.75,0,0,0,1.126-1.635V13.43l4.642,2.039a1.751,1.751,0,0,0,1.328.032L120.6,9.676a1.75,1.75,0,0,0,.064-3.244l-6.83-2.922a43.4,43.4,0,0,0-41.6,4A23,23,0,0,0,64,17.448,23,23,0,0,0,55.773,7.51a43.4,43.4,0,0,0-41.6-4L7.338,6.432A1.75,1.75,0,0,0,7.4,9.676L22.655,15.5a1.755,1.755,0,0,0,1.328-.032l4.642-2.039v3.146a1.75,1.75,0,0,0,1.126,1.635l17.4,6.643a23.142,23.142,0,0,0-6.443,2.5A43.4,43.4,0,0,0,18.87,62.993l-.368,7.42a1.749,1.749,0,0,0,2.943,1.364l16.6-15.528a1.75,1.75,0,0,0,.51-1.671l-1.179-5.1,4.138,2a1.751,1.751,0,0,0,1.956-.3l6.806-6.368a8.836,8.836,0,0,0,7.984,1.58v7.575a289.419,289.419,0,0,1-2.933,41.049l-1.581,11C30.583,114.467,2.09,113.76,1.8,113.754a1.72,1.72,0,0,0-1.271.494A1.749,1.749,0,0,0,0,115.5v10.75A1.749,1.749,0,0,0,1.75,128h124.5a1.749,1.749,0,0,0,1.75-1.75V99.94a1.746,1.746,0,0,0-.855-1.5ZM64,24.063a5.508,5.508,0,0,1,5.061,3.349h0A5.49,5.49,0,0,1,67,34.168a5.362,5.362,0,0,1-.641.357l-.052.025a5.617,5.617,0,0,1-4.608,0l-.052-.025A5.362,5.362,0,0,1,61,34.168a5.49,5.49,0,0,1-2.069-6.746l.007-.016A5.51,5.51,0,0,1,64,24.063ZM61.454,66.92h5.092q.232,5.23.652,10.455H60.8Q61.221,72.154,61.454,66.92Zm.3-13.955h4.49v1q0,4.722.161,9.459H61.593q.154-4.734.162-9.459Zm5.74,27.91q.484,5.243,1.156,10.455h-9.3q.671-5.21,1.156-10.455Zm-5.74-42.6c.052.014.107.018.16.031.249.059.5.106.758.144.092.014.182.032.274.042a8.187,8.187,0,0,0,2.106,0c.092-.01.182-.028.274-.042.256-.038.509-.085.758-.144.053-.013.108-.017.16-.031v11.19h-4.49Zm-2.978,57.3c.036-.248.066-.5.1-.746H69.122c.035.248.065.5.1.746l.7,4.865q-5.881,1.764-12.446,4.184ZM69.745,42.668V36.484a9.025,9.025,0,0,0,2.841-4.225,5.5,5.5,0,1,1-2.841,10.409Zm35.889,20.5.154,3.1-12.7-11.885,1.773-7.677a1.75,1.75,0,0,0-2.466-1.97L86.05,47.8l-6.038-5.65A8.982,8.982,0,0,0,72.96,28.78c-.022-.262-.06-.518-.1-.773a19.533,19.533,0,0,1,12.7,2.384,39.913,39.913,0,0,1,20.074,32.776ZM74.191,10.406a39.92,39.92,0,0,1,38.263-3.678l2.855,1.221-10.542,4.027L98.329,9.147a1.751,1.751,0,0,0-2.454,1.6v4.621l-24.335,9.3a9.023,9.023,0,0,0-5.1-3.755,19.53,19.53,0,0,1,7.751-10.5ZM31.332,9.285a1.753,1.753,0,0,0-1.661-.138l-6.438,2.829L12.691,7.949l2.855-1.221a39.92,39.92,0,0,1,38.263,3.678,19.527,19.527,0,0,1,7.746,10.5,9.023,9.023,0,0,0-5.095,3.755l-24.335-9.29V10.75a1.748,1.748,0,0,0-.793-1.465ZM41.95,47.8,35.6,44.736a1.749,1.749,0,0,0-2.465,1.97l1.773,7.677-12.7,11.885.154-3.1A39.913,39.913,0,0,1,42.445,30.389a19.535,19.535,0,0,1,12.7-2.383,7.3,7.3,0,0,0-.1.772,8.982,8.982,0,0,0-7.052,13.37Zm13.875-4.56a5.5,5.5,0,0,1-.411-10.979,9.025,9.025,0,0,0,2.841,4.225V42.67a5.452,5.452,0,0,1-2.43.568ZM124.5,124.5H3.5v-7.222c6.851.039,31.566-.439,52.441-8.352h0c.1-.039.207-.075.31-.115,43.2-16.551,63.952-9.639,68.249-7.776Z" transform="translate(0 0.026)"/>
</svg>
